<svg width="4500" height="3000" viewBox="0 0 4500 3000" fill="none" xmlns="http://www.w3.org/2000/svg">
<rect width="4500" height="3000" fill="url(#paint0_linear_254_11953)"/>
<path d="M1378.79 1601.97C1439.31 1601.97 1488.38 1556.31 1488.38 1500C1488.38 1443.68 1439.31 1398.03 1378.79 1398.03C1318.26 1398.03 1269.2 1443.68 1269.2 1500C1269.2 1556.31 1318.26 1601.97 1378.79 1601.97Z" fill="#61DAFB"/>
<path d="M1795.05 1331.84C1773.9 1324.69 1751.79 1317.53 1728.72 1311.27C1734.49 1289.8 1739.3 1268.34 1743.14 1247.76C1763.33 1129.7 1741.22 1046.51 1679.69 1014.31C1661.43 1004.47 1641.24 1000 1618.17 1000C1550.87 1000 1465.32 1046.51 1378.8 1124.33C1292.28 1046.51 1206.72 1000 1139.42 1000C1116.35 1000 1096.16 1004.47 1077.9 1014.31C1016.37 1047.41 994.262 1130.59 1014.45 1247.76C1018.3 1268.34 1023.1 1289.8 1028.87 1311.27C1005.8 1317.53 983.687 1323.79 962.538 1331.84C842.371 1374.78 777 1433.81 777 1500C777 1566.19 843.332 1625.22 962.538 1668.16C983.687 1675.31 1005.8 1682.47 1028.87 1688.73C1023.1 1710.2 1018.3 1731.66 1014.45 1752.24C994.262 1870.3 1016.37 1953.49 1077.9 1985.69C1096.16 1995.53 1116.35 2000 1139.42 2000C1207.68 2000 1293.24 1953.49 1378.8 1875.67C1465.32 1953.49 1550.87 2000 1618.17 2000C1641.24 2000 1661.43 1995.53 1679.69 1985.69C1741.22 1952.59 1763.33 1869.41 1743.14 1752.24C1739.3 1731.66 1734.49 1710.2 1728.72 1688.73C1751.79 1682.47 1773.9 1676.21 1795.05 1668.16C1915.22 1625.22 1980.59 1566.19 1980.59 1500C1980.59 1433.81 1915.22 1374.78 1795.05 1331.84V1331.84ZM1652.78 1059.03C1692.19 1080.5 1705.65 1146.69 1689.31 1240.61C1686.42 1259.39 1681.62 1279.07 1675.85 1299.64C1625.86 1288.91 1572.99 1281.75 1517.23 1277.28C1484.54 1234.35 1450.9 1195.89 1417.25 1161C1488.39 1095.71 1560.49 1050.98 1619.13 1050.98C1631.63 1050.98 1643.16 1053.67 1652.78 1059.03V1059.03ZM1545.11 1589.45C1527.8 1618.07 1507.61 1646.69 1486.47 1675.31C1450.9 1678 1415.33 1678.89 1378.8 1678.89C1341.3 1678.89 1305.73 1678 1271.13 1675.31C1249.98 1646.69 1230.75 1618.07 1213.45 1589.45C1195.18 1559.93 1177.88 1529.52 1162.5 1500C1177.88 1470.48 1195.18 1440.07 1213.45 1410.55C1230.75 1381.93 1250.94 1353.31 1272.09 1324.69C1307.66 1322 1343.23 1321.11 1379.76 1321.11C1417.25 1321.11 1452.82 1322 1487.43 1324.69C1508.58 1353.31 1527.8 1381.93 1545.11 1410.55C1563.37 1440.07 1580.68 1470.48 1596.06 1500C1579.71 1529.52 1563.37 1559.03 1545.11 1589.45ZM1624.9 1559.93C1639.32 1591.23 1650.85 1621.65 1661.43 1652.06C1628.74 1659.21 1594.13 1664.58 1557.6 1669.05C1569.14 1652.06 1581.64 1634.17 1592.21 1615.38C1603.75 1596.6 1614.32 1577.82 1624.9 1559.93ZM1378.8 1802.33C1355.72 1779.07 1333.61 1754.03 1312.46 1728.09C1334.57 1728.98 1356.69 1729.87 1378.8 1729.87C1400.91 1729.87 1423.02 1728.98 1445.13 1728.09C1423.98 1754.03 1401.87 1779.07 1378.8 1802.33ZM1199.99 1668.16C1163.46 1663.69 1128.85 1658.32 1096.16 1651.16C1106.74 1621.65 1118.27 1590.34 1132.69 1559.03C1143.27 1576.92 1153.84 1595.71 1165.38 1613.6C1176.92 1633.27 1188.45 1650.27 1199.99 1668.16V1668.16ZM1132.69 1440.07C1118.27 1408.77 1106.74 1378.35 1096.16 1347.94C1128.85 1340.79 1163.46 1335.42 1199.99 1330.95C1188.45 1347.94 1175.95 1365.83 1165.38 1384.62C1153.84 1403.4 1143.27 1422.18 1132.69 1440.07V1440.07ZM1378.8 1197.67C1401.87 1220.93 1423.98 1245.97 1445.13 1271.91C1423.02 1271.02 1400.91 1270.13 1378.8 1270.13C1356.69 1270.13 1334.57 1271.02 1312.46 1271.91C1333.61 1245.97 1355.72 1220.93 1378.8 1197.67ZM1592.21 1385.51L1557.6 1331.84C1594.13 1336.31 1628.74 1341.68 1661.43 1348.84C1650.85 1378.35 1639.32 1409.66 1624.9 1440.97C1614.32 1422.18 1603.75 1403.4 1592.21 1385.51ZM1068.28 1240.61C1051.94 1146.69 1065.4 1080.5 1104.82 1059.03C1114.43 1053.67 1125.96 1050.98 1138.46 1050.98C1196.14 1050.98 1268.24 1094.81 1340.34 1161C1306.7 1194.99 1273.05 1234.35 1240.36 1277.28C1184.61 1281.75 1131.73 1289.8 1081.74 1299.64C1075.98 1279.07 1072.13 1259.39 1068.28 1240.61V1240.61ZM830.835 1500C830.835 1457.96 885.631 1413.24 981.764 1380.14C1000.99 1372.99 1022.14 1366.73 1043.29 1361.36C1058.67 1406.08 1077.9 1453.49 1100.97 1500.89C1077.9 1548.3 1057.71 1594.81 1043.29 1639.53C910.626 1603.76 830.835 1550.09 830.835 1500ZM1104.82 1940.97C1065.4 1919.5 1051.94 1853.31 1068.28 1759.39C1071.17 1740.61 1075.98 1720.93 1081.74 1700.36C1131.73 1711.09 1184.61 1718.25 1240.36 1722.72C1273.05 1765.65 1306.7 1804.11 1340.34 1839C1269.2 1904.29 1197.1 1949.02 1138.46 1949.02C1125.96 1949.02 1114.43 1946.33 1104.82 1940.97ZM1689.31 1759.39C1705.65 1853.31 1692.19 1919.5 1652.78 1940.97C1643.16 1946.33 1631.63 1949.02 1619.13 1949.02C1561.45 1949.02 1489.35 1905.19 1417.25 1839C1450.9 1805.01 1484.54 1765.65 1517.23 1722.72C1572.99 1718.25 1625.86 1710.2 1675.85 1700.36C1681.62 1720.93 1685.46 1740.61 1689.31 1759.39V1759.39ZM1775.83 1619.86C1756.6 1627.01 1735.45 1633.27 1714.3 1638.64C1698.92 1593.92 1679.69 1546.51 1656.62 1499.11C1679.69 1451.7 1699.88 1405.19 1714.3 1360.47C1846.97 1396.24 1926.76 1449.91 1926.76 1500C1926.76 1542.04 1871 1586.76 1775.83 1619.86Z" fill="#61DAFB"/>
<path d="M3472.44 1161.4H3657.06L3195.5 1957.6L2733.94 1161.4H3087.03L3195.5 1346.03L3301.66 1161.4H3472.44Z" fill="#41B883"/>
<path d="M2733.94 1161.4L3195.5 1957.6L3657.06 1161.4H3472.44L3195.5 1639.12L2916.25 1161.4H2733.94Z" fill="#41B883"/>
<path d="M2916.26 1161.4L3195.5 1641.43L3472.44 1161.4H3301.66L3195.5 1346.03L3087.03 1161.4H2916.26Z" fill="#35495E"/>
<defs>
<linearGradient id="paint0_linear_254_11953" x1="2250" y1="0" x2="2250" y2="3000" gradientUnits="userSpaceOnUse">
<stop stop-color="#4B87BF"/>
<stop offset="1" stop-color="#4B87BF"/>
</linearGradient>
</defs>
</svg>
