<svg width="32" height="32" viewBox="0 0 32 32" fill="none" xmlns="http://www.w3.org/2000/svg">
<path d="M26.1333 19.2C24.3199 18.6667 22.6133 18.0267 21.0133 17.0667L19.3066 16L21.0133 15.04C22.6133 14.08 24.3199 13.3334 26.1333 12.9067C26.7733 12.6934 27.0933 11.9467 26.7733 11.3067L25.4933 8.96003C25.1733 8.32003 24.3199 8.21337 23.7866 8.7467C22.5066 10.0267 21.0133 11.2 19.3066 12.16L17.5999 13.12V11.0934C17.5999 9.17337 17.8133 7.36003 18.3466 5.5467C18.5599 4.9067 18.0266 4.16003 17.2799 4.16003H14.6133C13.8666 4.16003 13.4399 4.80003 13.5466 5.5467C13.9733 7.36003 14.2933 9.17337 14.2933 11.0934V13.12L12.5866 12.16C10.9866 11.2 9.49328 10.1334 8.10661 8.7467C7.67994 8.32003 6.82661 8.4267 6.50661 8.96003L5.22661 11.3067C4.90661 11.9467 5.22661 12.6934 5.86661 12.9067C7.67995 13.44 9.38661 14.08 10.9866 15.04L12.6933 16L10.9866 16.96C9.38661 17.92 7.67995 18.6667 5.86661 19.0934C5.22661 19.3067 4.90661 20.0534 5.22661 20.6934L6.50661 23.04C6.82661 23.68 7.67994 23.7867 8.21328 23.2534C9.49328 21.9734 10.9866 20.8 12.6933 19.84L14.3999 18.88V20.9067C14.3999 22.8267 14.1866 24.64 13.6533 26.4534C13.4399 27.0934 13.9733 27.84 14.7199 27.84H17.3866C18.1333 27.84 18.5599 27.2 18.4533 26.4534C18.0266 24.64 17.7066 22.8267 17.7066 20.9067V18.88L19.4133 19.84C21.0133 20.8 22.5066 21.8667 23.8933 23.2534C24.4266 23.7867 25.1733 23.68 25.5999 23.04L26.8799 20.6934C27.1999 20.16 26.8799 19.3067 26.1333 19.2Z" fill="#C6C9CC"/>
</svg>
