<svg width="38" height="38" viewBox="0 0 38 38" fill="none" xmlns="http://www.w3.org/2000/svg">
<path d="M13.44 33.448C11.6693 33.448 10.0267 33.1707 8.512 32.616C6.99733 32.04 5.68533 31.2293 4.576 30.184C3.488 29.1387 2.63467 27.912 2.016 26.504C1.39733 25.0747 1.088 23.5067 1.088 21.8C1.088 20.0933 1.39733 18.536 2.016 17.128C2.63467 15.6987 3.49867 14.4613 4.608 13.416C5.71733 12.3707 7.02933 11.5707 8.544 11.016C10.08 10.44 11.7547 10.152 13.568 10.152C15.68 10.152 17.568 10.504 19.232 11.208C20.896 11.912 22.272 12.9253 23.36 14.248L19.328 17.896C18.56 17.064 17.728 16.4453 16.832 16.04C15.9573 15.6133 14.976 15.4 13.888 15.4C12.928 15.4 12.0533 15.5493 11.264 15.848C10.4747 16.1467 9.80267 16.584 9.248 17.16C8.69333 17.7147 8.256 18.3867 7.936 19.176C7.63733 19.944 7.488 20.8187 7.488 21.8C7.488 22.7387 7.63733 23.6027 7.936 24.392C8.256 25.1813 8.69333 25.864 9.248 26.44C9.80267 26.9947 10.464 27.432 11.232 27.752C12.0213 28.0507 12.8853 28.2 13.824 28.2C14.7627 28.2 15.68 28.0507 16.576 27.752C17.472 27.432 18.3787 26.8987 19.296 26.152L22.848 30.6C21.568 31.5173 20.0853 32.2213 18.4 32.712C16.7147 33.2027 15.0613 33.448 13.44 33.448ZM17.248 29.768V21.32H22.848V30.6L17.248 29.768ZM26.865 33V10.6H33.201V33H26.865Z" fill="white"/>
<path d="M8.512 32.616L8.15652 33.5508L8.16813 33.555L8.512 32.616ZM4.576 30.184L3.88314 30.9051L3.8902 30.9118L4.576 30.184ZM2.016 26.504L1.09826 26.9012L1.10048 26.9063L2.016 26.504ZM2.016 17.128L2.93153 17.5303L2.93372 17.5252L2.016 17.128ZM4.608 13.416L3.9222 12.6882H3.9222L4.608 13.416ZM8.544 11.016L8.88788 11.955L8.89512 11.9523L8.544 11.016ZM19.232 11.208L19.6216 10.287L19.232 11.208ZM23.36 14.248L24.0309 14.9895L24.7383 14.3495L24.1323 13.6127L23.36 14.248ZM19.328 17.896L18.5932 18.5743L19.2647 19.3018L19.9989 18.6375L19.328 17.896ZM16.832 16.04L16.3936 16.9388L16.4066 16.9451L16.4198 16.9511L16.832 16.04ZM9.248 17.16L9.95511 17.8671L9.96178 17.8604L9.96832 17.8536L9.248 17.16ZM7.936 19.176L7.00926 18.8003L7.00658 18.8069L7.004 18.8136L7.936 19.176ZM7.936 24.392L7.00071 24.7459L7.00486 24.7568L7.00926 24.7677L7.936 24.392ZM9.248 26.44L8.52768 27.1336L8.53422 27.1404L8.54089 27.1471L9.248 26.44ZM11.232 27.752L10.8474 28.6751L10.8626 28.6814L10.8781 28.6873L11.232 27.752ZM16.576 27.752L16.8922 28.7007L16.9023 28.6973L16.9123 28.6937L16.576 27.752ZM19.296 26.152L20.0774 25.528L19.4476 24.7393L18.6647 25.3764L19.296 26.152ZM22.848 30.6L23.4305 31.4128L24.2868 30.7992L23.6294 29.976L22.848 30.6ZM18.4 32.712L18.6795 33.6721L18.4 32.712ZM17.248 29.768H16.248V30.6304L17.101 30.7571L17.248 29.768ZM17.248 21.32V20.32H16.248V21.32H17.248ZM22.848 21.32H23.848V20.32H22.848V21.32ZM22.848 30.6L22.701 31.5891L23.848 31.7595V30.6H22.848ZM13.44 32.448C11.7752 32.448 10.2501 32.1876 8.85587 31.677L8.16813 33.555C9.80322 34.1538 11.5635 34.448 13.44 34.448V32.448ZM8.86745 31.6813C7.46756 31.149 6.26973 30.406 5.2618 29.4562L3.8902 30.9118C5.10094 32.0527 6.52711 32.931 8.15655 33.5507L8.86745 31.6813ZM5.26883 29.4629C4.27706 28.51 3.49858 27.3923 2.93152 26.1017L1.10048 26.9063C1.77076 28.4317 2.69894 29.7673 3.88317 30.9051L5.26883 29.4629ZM2.93372 26.1068C2.37433 24.8144 2.088 23.3832 2.088 21.8H0.0880001C0.0880001 23.6301 0.420332 25.3349 1.09828 26.9012L2.93372 26.1068ZM2.088 21.8C2.088 20.2166 2.3744 18.7982 2.93152 17.5303L1.10048 16.7257C0.420271 18.2738 0.0880001 19.9701 0.0880001 21.8H2.088ZM2.93372 17.5252C3.49957 16.2179 4.28564 15.0938 5.2938 14.1438L3.9222 12.6882C2.71169 13.8289 1.76976 15.1794 1.09828 16.7308L2.93372 17.5252ZM5.2938 14.1438C6.29896 13.1966 7.49277 12.4659 8.88787 11.955L8.20013 10.077C6.56589 10.6754 5.13571 11.5447 3.9222 12.6882L5.2938 14.1438ZM8.89512 11.9523C10.3076 11.4226 11.862 11.152 13.568 11.152V9.152C11.6474 9.152 9.85238 9.45736 8.19288 10.0797L8.89512 11.9523ZM13.568 11.152C15.5685 11.152 17.3207 11.4852 18.8424 12.129L19.6216 10.287C17.8153 9.52283 15.7915 9.152 13.568 9.152V11.152ZM18.8424 12.129C20.366 12.7736 21.608 13.6922 22.5877 14.8833L24.1323 13.6127C22.936 12.1584 21.426 11.0504 19.6216 10.287L18.8424 12.129ZM22.6891 13.5065L18.6571 17.1545L19.9989 18.6375L24.0309 14.9895L22.6891 13.5065ZM20.0628 17.2177C19.2176 16.3021 18.2793 15.5972 17.2442 15.1289L16.4198 16.9511C17.1767 17.2935 17.9024 17.8259 18.5932 18.5743L20.0628 17.2177ZM17.2704 15.1412C16.2438 14.6405 15.1098 14.4 13.888 14.4V16.4C14.8422 16.4 15.6708 16.5862 16.3936 16.9388L17.2704 15.1412ZM13.888 14.4C12.8236 14.4 11.827 14.5658 10.9101 14.9127L11.6179 16.7833C12.2797 16.5329 13.0324 16.4 13.888 16.4V14.4ZM10.9101 14.9127C9.9901 15.2608 9.19076 15.7778 8.52768 16.4664L9.96832 17.8536C10.4146 17.3902 10.9592 17.0325 11.6179 16.7833L10.9101 14.9127ZM8.54089 16.4529C7.88371 17.1101 7.3752 17.8976 7.00926 18.8003L8.86274 19.5517C9.1368 18.8757 9.50296 18.3193 9.95511 17.8671L8.54089 16.4529ZM7.004 18.8136C6.6527 19.7169 6.488 20.7178 6.488 21.8H8.488C8.488 20.9195 8.62196 20.1711 8.868 19.5384L7.004 18.8136ZM6.488 21.8C6.488 22.8461 6.65472 23.8315 7.00071 24.7459L8.87129 24.0381C8.61994 23.3738 8.488 22.6313 8.488 21.8H6.488ZM7.00926 24.7677C7.37401 25.6674 7.87892 26.4599 8.52768 27.1336L9.96832 25.7464C9.50775 25.2681 9.13799 24.6952 8.86274 24.0163L7.00926 24.7677ZM8.54089 27.1471C9.19344 27.7996 9.96623 28.3079 10.8474 28.6751L11.6166 26.8289C10.9618 26.5561 10.4119 26.1897 9.95511 25.7329L8.54089 27.1471ZM10.8781 28.6873C11.7925 29.0333 12.7779 29.2 13.824 29.2V27.2C12.9927 27.2 12.2502 27.0681 11.5859 26.8167L10.8781 28.6873ZM13.824 29.2C14.8708 29.2 15.8949 29.0331 16.8922 28.7007L16.2598 26.8033C15.4651 27.0682 14.6545 27.2 13.824 27.2V29.2ZM16.9123 28.6937C17.9378 28.3275 18.9424 27.7292 19.9273 26.9276L18.6647 25.3764C17.815 26.0681 17.0062 26.5365 16.2397 26.8103L16.9123 28.6937ZM18.5146 26.776L22.0666 31.224L23.6294 29.976L20.0774 25.528L18.5146 26.776ZM22.2655 29.7872C21.0873 30.6315 19.7096 31.2892 18.1205 31.7519L18.6795 33.6721C20.4611 33.1535 22.0487 32.4031 23.4305 31.4128L22.2655 29.7872ZM18.1205 31.7519C16.5185 32.2183 14.9593 32.448 13.44 32.448V34.448C15.1634 34.448 16.9108 34.1871 18.6795 33.6721L18.1205 31.7519ZM18.248 29.768V21.32H16.248V29.768H18.248ZM17.248 22.32H22.848V20.32H17.248V22.32ZM21.848 21.32V30.6H23.848V21.32H21.848ZM22.995 29.6109L17.395 28.7789L17.101 30.7571L22.701 31.5891L22.995 29.6109ZM26.865 33H25.865V34H26.865V33ZM26.865 10.6V9.6H25.865V10.6H26.865ZM33.201 10.6H34.201V9.6H33.201V10.6ZM33.201 33V34H34.201V33H33.201ZM27.865 33V10.6H25.865V33H27.865ZM26.865 11.6H33.201V9.6H26.865V11.6ZM32.201 10.6V33H34.201V10.6H32.201ZM33.201 32H26.865V34H33.201V32Z" fill="#141414"/>
<path d="M9.512 31.616L9.15652 32.5508L9.16813 32.555L9.512 31.616ZM5.576 29.184L4.88314 29.9051L4.8902 29.9118L5.576 29.184ZM3.016 25.504L2.09826 25.9012L2.10048 25.9063L3.016 25.504ZM3.016 16.128L3.93153 16.5303L3.93372 16.5252L3.016 16.128ZM5.608 12.416L4.9222 11.6882H4.9222L5.608 12.416ZM9.544 10.016L9.88788 10.955L9.89512 10.9523L9.544 10.016ZM20.232 10.208L20.6216 9.28703L20.232 10.208ZM24.36 13.248L25.0309 13.9895L25.7383 13.3495L25.1323 12.6127L24.36 13.248ZM20.328 16.896L19.5932 17.5743L20.2647 18.3018L20.9989 17.6375L20.328 16.896ZM17.832 15.04L17.3936 15.9388L17.4066 15.9451L17.4198 15.9511L17.832 15.04ZM10.248 16.16L10.9551 16.8671L10.9618 16.8604L10.9683 16.8536L10.248 16.16ZM8.936 18.176L8.00926 17.8003L8.00658 17.8069L8.004 17.8136L8.936 18.176ZM8.936 23.392L8.00071 23.7459L8.00486 23.7568L8.00926 23.7677L8.936 23.392ZM10.248 25.44L9.52768 26.1336L9.53422 26.1404L9.54089 26.1471L10.248 25.44ZM12.232 26.752L11.8474 27.6751L11.8626 27.6814L11.8781 27.6873L12.232 26.752ZM17.576 26.752L17.8922 27.7007L17.9023 27.6973L17.9123 27.6937L17.576 26.752ZM20.296 25.152L21.0774 24.528L20.4476 23.7393L19.6647 24.3764L20.296 25.152ZM23.848 29.6L24.4305 30.4128L25.2868 29.7992L24.6294 28.976L23.848 29.6ZM19.4 31.712L19.6795 32.6721L19.4 31.712ZM18.248 28.768H17.248V29.6304L18.101 29.7571L18.248 28.768ZM18.248 20.32V19.32H17.248V20.32H18.248ZM23.848 20.32H24.848V19.32H23.848V20.32ZM23.848 29.6L23.701 30.5891L24.848 30.7595V29.6H23.848ZM14.44 31.448C12.7752 31.448 11.2501 31.1876 9.85587 30.677L9.16813 32.555C10.8032 33.1538 12.5635 33.448 14.44 33.448V31.448ZM9.86745 30.6813C8.46756 30.149 7.26973 29.406 6.2618 28.4562L4.8902 29.9118C6.10094 31.0527 7.52711 31.931 9.15655 32.5507L9.86745 30.6813ZM6.26883 28.4629C5.27706 27.51 4.49858 26.3923 3.93152 25.1017L2.10048 25.9063C2.77076 27.4317 3.69894 28.7673 4.88317 29.9051L6.26883 28.4629ZM3.93372 25.1068C3.37433 23.8144 3.088 22.3832 3.088 20.8H1.088C1.088 22.6301 1.42033 24.3349 2.09828 25.9012L3.93372 25.1068ZM3.088 20.8C3.088 19.2166 3.3744 17.7982 3.93152 16.5303L2.10048 15.7257C1.42027 17.2738 1.088 18.9701 1.088 20.8H3.088ZM3.93372 16.5252C4.49957 15.2179 5.28564 14.0938 6.2938 13.1438L4.9222 11.6882C3.71169 12.8289 2.76976 14.1794 2.09828 15.7308L3.93372 16.5252ZM6.2938 13.1438C7.29896 12.1966 8.49277 11.4659 9.88787 10.955L9.20013 9.07698C7.56589 9.67544 6.13571 10.5447 4.9222 11.6882L6.2938 13.1438ZM9.89512 10.9523C11.3076 10.4226 12.862 10.152 14.568 10.152V8.152C12.6474 8.152 10.8524 8.45736 9.19288 9.07967L9.89512 10.9523ZM14.568 10.152C16.5685 10.152 18.3207 10.4852 19.8424 11.129L20.6216 9.28703C18.8153 8.52283 16.7915 8.152 14.568 8.152V10.152ZM19.8424 11.129C21.366 11.7736 22.608 12.6922 23.5877 13.8833L25.1323 12.6127C23.936 11.1584 22.426 10.0504 20.6216 9.28703L19.8424 11.129ZM23.6891 12.5065L19.6571 16.1545L20.9989 17.6375L25.0309 13.9895L23.6891 12.5065ZM21.0628 16.2177C20.2176 15.3021 19.2793 14.5972 18.2442 14.1289L17.4198 15.9511C18.1767 16.2935 18.9024 16.8259 19.5932 17.5743L21.0628 16.2177ZM18.2704 14.1412C17.2438 13.6405 16.1098 13.4 14.888 13.4V15.4C15.8422 15.4 16.6708 15.5862 17.3936 15.9388L18.2704 14.1412ZM14.888 13.4C13.8236 13.4 12.827 13.5658 11.9101 13.9127L12.6179 15.7833C13.2797 15.5329 14.0324 15.4 14.888 15.4V13.4ZM11.9101 13.9127C10.9901 14.2608 10.1908 14.7778 9.52768 15.4664L10.9683 16.8536C11.4146 16.3902 11.9592 16.0325 12.6179 15.7833L11.9101 13.9127ZM9.54089 15.4529C8.88371 16.1101 8.3752 16.8976 8.00926 17.8003L9.86274 18.5517C10.1368 17.8757 10.503 17.3193 10.9551 16.8671L9.54089 15.4529ZM8.004 17.8136C7.6527 18.7169 7.488 19.7178 7.488 20.8H9.488C9.488 19.9195 9.62196 19.1711 9.868 18.5384L8.004 17.8136ZM7.488 20.8C7.488 21.8461 7.65472 22.8315 8.00071 23.7459L9.87129 23.0381C9.61994 22.3738 9.488 21.6313 9.488 20.8H7.488ZM8.00926 23.7677C8.37401 24.6674 8.87892 25.4599 9.52768 26.1336L10.9683 24.7464C10.5077 24.2681 10.138 23.6952 9.86274 23.0163L8.00926 23.7677ZM9.54089 26.1471C10.1934 26.7996 10.9662 27.3079 11.8474 27.6751L12.6166 25.8289C11.9618 25.5561 11.4119 25.1897 10.9551 24.7329L9.54089 26.1471ZM11.8781 27.6873C12.7925 28.0333 13.7779 28.2 14.824 28.2V26.2C13.9927 26.2 13.2502 26.0681 12.5859 25.8167L11.8781 27.6873ZM14.824 28.2C15.8708 28.2 16.8949 28.0331 17.8922 27.7007L17.2598 25.8033C16.4651 26.0682 15.6545 26.2 14.824 26.2V28.2ZM17.9123 27.6937C18.9378 27.3275 19.9424 26.7292 20.9273 25.9276L19.6647 24.3764C18.815 25.0681 18.0062 25.5365 17.2397 25.8103L17.9123 27.6937ZM19.5146 25.776L23.0666 30.224L24.6294 28.976L21.0774 24.528L19.5146 25.776ZM23.2655 28.7872C22.0873 29.6315 20.7096 30.2892 19.1205 30.7519L19.6795 32.6721C21.4611 32.1535 23.0487 31.4031 24.4305 30.4128L23.2655 28.7872ZM19.1205 30.7519C17.5185 31.2183 15.9593 31.448 14.44 31.448V33.448C16.1634 33.448 17.9108 33.1871 19.6795 32.6721L19.1205 30.7519ZM19.248 28.768V20.32H17.248V28.768H19.248ZM18.248 21.32H23.848V19.32H18.248V21.32ZM22.848 20.32V29.6H24.848V20.32H22.848ZM23.995 28.6109L18.395 27.7789L18.101 29.7571L23.701 30.5891L23.995 28.6109ZM27.865 32H26.865V33H27.865V32ZM27.865 9.6V8.6H26.865V9.6H27.865ZM34.201 9.6H35.201V8.6H34.201V9.6ZM34.201 32V33H35.201V32H34.201ZM28.865 32V9.6H26.865V32H28.865ZM27.865 10.6H34.201V8.6H27.865V10.6ZM33.201 9.6V32H35.201V9.6H33.201ZM34.201 31H27.865V33H34.201V31Z" fill="#141414"/>
<path d="M10.512 30.616L10.1565 31.5508L10.1681 31.555L10.512 30.616ZM6.576 28.184L5.88314 28.9051L5.8902 28.9118L6.576 28.184ZM4.016 24.504L3.09826 24.9012L3.10048 24.9063L4.016 24.504ZM4.016 15.128L4.93153 15.5303L4.93372 15.5252L4.016 15.128ZM6.608 11.416L5.9222 10.6882H5.9222L6.608 11.416ZM10.544 9.016L10.8879 9.95505L10.8951 9.95233L10.544 9.016ZM21.232 9.208L21.6216 8.28703L21.232 9.208ZM25.36 12.248L26.0309 12.9895L26.7383 12.3495L26.1323 11.6127L25.36 12.248ZM21.328 15.896L20.5932 16.5743L21.2647 17.3018L21.9989 16.6375L21.328 15.896ZM18.832 14.04L18.3936 14.9388L18.4066 14.9451L18.4198 14.9511L18.832 14.04ZM11.248 15.16L11.9551 15.8671L11.9618 15.8604L11.9683 15.8536L11.248 15.16ZM9.936 17.176L9.00926 16.8003L9.00658 16.8069L9.004 16.8136L9.936 17.176ZM9.936 22.392L9.00071 22.7459L9.00486 22.7568L9.00926 22.7677L9.936 22.392ZM11.248 24.44L10.5277 25.1336L10.5342 25.1404L10.5409 25.1471L11.248 24.44ZM13.232 25.752L12.8474 26.6751L12.8626 26.6814L12.8781 26.6873L13.232 25.752ZM18.576 25.752L18.8922 26.7007L18.9023 26.6973L18.9123 26.6937L18.576 25.752ZM21.296 24.152L22.0774 23.528L21.4476 22.7393L20.6647 23.3764L21.296 24.152ZM24.848 28.6L25.4305 29.4128L26.2868 28.7992L25.6294 27.976L24.848 28.6ZM20.4 30.712L20.6795 31.6721L20.4 30.712ZM19.248 27.768H18.248V28.6304L19.101 28.7571L19.248 27.768ZM19.248 19.32V18.32H18.248V19.32H19.248ZM24.848 19.32H25.848V18.32H24.848V19.32ZM24.848 28.6L24.701 29.5891L25.848 29.7595V28.6H24.848ZM15.44 30.448C13.7752 30.448 12.2501 30.1876 10.8559 29.677L10.1681 31.555C11.8032 32.1538 13.5635 32.448 15.44 32.448V30.448ZM10.8674 29.6813C9.46756 29.149 8.26973 28.406 7.2618 27.4562L5.8902 28.9118C7.10094 30.0527 8.52711 30.931 10.1566 31.5507L10.8674 29.6813ZM7.26883 27.4629C6.27706 26.51 5.49858 25.3923 4.93152 24.1017L3.10048 24.9063C3.77076 26.4317 4.69894 27.7673 5.88317 28.9051L7.26883 27.4629ZM4.93372 24.1068C4.37433 22.8144 4.088 21.3832 4.088 19.8H2.088C2.088 21.6301 2.42033 23.3349 3.09828 24.9012L4.93372 24.1068ZM4.088 19.8C4.088 18.2166 4.3744 16.7982 4.93152 15.5303L3.10048 14.7257C2.42027 16.2738 2.088 17.9701 2.088 19.8H4.088ZM4.93372 15.5252C5.49957 14.2179 6.28564 13.0938 7.2938 12.1438L5.9222 10.6882C4.71169 11.8289 3.76976 13.1794 3.09828 14.7308L4.93372 15.5252ZM7.2938 12.1438C8.29896 11.1966 9.49277 10.4659 10.8879 9.95502L10.2001 8.07698C8.56589 8.67544 7.13571 9.54471 5.9222 10.6882L7.2938 12.1438ZM10.8951 9.95233C12.3076 9.42264 13.862 9.152 15.568 9.152V7.152C13.6474 7.152 11.8524 7.45736 10.1929 8.07967L10.8951 9.95233ZM15.568 9.152C17.5685 9.152 19.3207 9.48517 20.8424 10.129L21.6216 8.28703C19.8153 7.52283 17.7915 7.152 15.568 7.152V9.152ZM20.8424 10.129C22.366 10.7736 23.608 11.6922 24.5877 12.8833L26.1323 11.6127C24.936 10.1584 23.426 9.0504 21.6216 8.28703L20.8424 10.129ZM24.6891 11.5065L20.6571 15.1545L21.9989 16.6375L26.0309 12.9895L24.6891 11.5065ZM22.0628 15.2177C21.2176 14.3021 20.2793 13.5972 19.2442 13.1289L18.4198 14.9511C19.1767 15.2935 19.9024 15.8259 20.5932 16.5743L22.0628 15.2177ZM19.2704 13.1412C18.2438 12.6405 17.1098 12.4 15.888 12.4V14.4C16.8422 14.4 17.6708 14.5862 18.3936 14.9388L19.2704 13.1412ZM15.888 12.4C14.8236 12.4 13.827 12.5658 12.9101 12.9127L13.6179 14.7833C14.2797 14.5329 15.0324 14.4 15.888 14.4V12.4ZM12.9101 12.9127C11.9901 13.2608 11.1908 13.7778 10.5277 14.4664L11.9683 15.8536C12.4146 15.3902 12.9592 15.0325 13.6179 14.7833L12.9101 12.9127ZM10.5409 14.4529C9.88371 15.1101 9.3752 15.8976 9.00926 16.8003L10.8627 17.5517C11.1368 16.8757 11.503 16.3193 11.9551 15.8671L10.5409 14.4529ZM9.004 16.8136C8.6527 17.7169 8.488 18.7178 8.488 19.8H10.488C10.488 18.9195 10.622 18.1711 10.868 17.5384L9.004 16.8136ZM8.488 19.8C8.488 20.8461 8.65472 21.8315 9.00071 22.7459L10.8713 22.0381C10.6199 21.3738 10.488 20.6313 10.488 19.8H8.488ZM9.00926 22.7677C9.37401 23.6674 9.87892 24.4599 10.5277 25.1336L11.9683 23.7464C11.5077 23.2681 11.138 22.6952 10.8627 22.0163L9.00926 22.7677ZM10.5409 25.1471C11.1934 25.7996 11.9662 26.3079 12.8474 26.6751L13.6166 24.8289C12.9618 24.5561 12.4119 24.1897 11.9551 23.7329L10.5409 25.1471ZM12.8781 26.6873C13.7925 27.0333 14.7779 27.2 15.824 27.2V25.2C14.9927 25.2 14.2502 25.0681 13.5859 24.8167L12.8781 26.6873ZM15.824 27.2C16.8708 27.2 17.8949 27.0331 18.8922 26.7007L18.2598 24.8033C17.4651 25.0682 16.6545 25.2 15.824 25.2V27.2ZM18.9123 26.6937C19.9378 26.3275 20.9424 25.7292 21.9273 24.9276L20.6647 23.3764C19.815 24.0681 19.0062 24.5365 18.2397 24.8103L18.9123 26.6937ZM20.5146 24.776L24.0666 29.224L25.6294 27.976L22.0774 23.528L20.5146 24.776ZM24.2655 27.7872C23.0873 28.6315 21.7096 29.2892 20.1205 29.7519L20.6795 31.6721C22.4611 31.1535 24.0487 30.4031 25.4305 29.4128L24.2655 27.7872ZM20.1205 29.7519C18.5185 30.2183 16.9593 30.448 15.44 30.448V32.448C17.1634 32.448 18.9108 32.1871 20.6795 31.6721L20.1205 29.7519ZM20.248 27.768V19.32H18.248V27.768H20.248ZM19.248 20.32H24.848V18.32H19.248V20.32ZM23.848 19.32V28.6H25.848V19.32H23.848ZM24.995 27.6109L19.395 26.7789L19.101 28.7571L24.701 29.5891L24.995 27.6109ZM28.865 31H27.865V32H28.865V31ZM28.865 8.6V7.6H27.865V8.6H28.865ZM35.201 8.6H36.201V7.6H35.201V8.6ZM35.201 31V32H36.201V31H35.201ZM29.865 31V8.6H27.865V31H29.865ZM28.865 9.6H35.201V7.6H28.865V9.6ZM34.201 8.6V31H36.201V8.6H34.201ZM35.201 30H28.865V32H35.201V30Z" fill="#141414"/>
<path d="M11.512 30.616L11.1565 31.5508L11.1681 31.555L11.512 30.616ZM7.576 28.184L6.88314 28.9051L6.8902 28.9118L7.576 28.184ZM5.016 24.504L4.09826 24.9012L4.10048 24.9063L5.016 24.504ZM5.016 15.128L5.93153 15.5303L5.93372 15.5252L5.016 15.128ZM7.608 11.416L6.9222 10.6882H6.9222L7.608 11.416ZM11.544 9.016L11.8879 9.95505L11.8951 9.95233L11.544 9.016ZM22.232 9.208L22.6216 8.28703L22.232 9.208ZM26.36 12.248L27.0309 12.9895L27.7383 12.3495L27.1323 11.6127L26.36 12.248ZM22.328 15.896L21.5932 16.5743L22.2647 17.3018L22.9989 16.6375L22.328 15.896ZM19.832 14.04L19.3936 14.9388L19.4066 14.9451L19.4198 14.9511L19.832 14.04ZM12.248 15.16L12.9551 15.8671L12.9618 15.8604L12.9683 15.8536L12.248 15.16ZM10.936 17.176L10.0093 16.8003L10.0066 16.8069L10.004 16.8136L10.936 17.176ZM10.936 22.392L10.0007 22.7459L10.0049 22.7568L10.0093 22.7677L10.936 22.392ZM12.248 24.44L11.5277 25.1336L11.5342 25.1404L11.5409 25.1471L12.248 24.44ZM14.232 25.752L13.8474 26.6751L13.8626 26.6814L13.8781 26.6873L14.232 25.752ZM19.576 25.752L19.8922 26.7007L19.9023 26.6973L19.9123 26.6937L19.576 25.752ZM22.296 24.152L23.0774 23.528L22.4476 22.7393L21.6647 23.3764L22.296 24.152ZM25.848 28.6L26.4305 29.4128L27.2868 28.7992L26.6294 27.976L25.848 28.6ZM21.4 30.712L21.6795 31.6721L21.4 30.712ZM20.248 27.768H19.248V28.6304L20.101 28.7571L20.248 27.768ZM20.248 19.32V18.32H19.248V19.32H20.248ZM25.848 19.32H26.848V18.32H25.848V19.32ZM25.848 28.6L25.701 29.5891L26.848 29.7595V28.6H25.848ZM16.44 30.448C14.7752 30.448 13.2501 30.1876 11.8559 29.677L11.1681 31.555C12.8032 32.1538 14.5635 32.448 16.44 32.448V30.448ZM11.8674 29.6813C10.4676 29.149 9.26973 28.406 8.2618 27.4562L6.8902 28.9118C8.10094 30.0527 9.52711 30.931 11.1566 31.5507L11.8674 29.6813ZM8.26883 27.4629C7.27706 26.51 6.49858 25.3923 5.93152 24.1017L4.10048 24.9063C4.77076 26.4317 5.69894 27.7673 6.88317 28.9051L8.26883 27.4629ZM5.93372 24.1068C5.37433 22.8144 5.088 21.3832 5.088 19.8H3.088C3.088 21.6301 3.42033 23.3349 4.09828 24.9012L5.93372 24.1068ZM5.088 19.8C5.088 18.2166 5.3744 16.7982 5.93152 15.5303L4.10048 14.7257C3.42027 16.2738 3.088 17.9701 3.088 19.8H5.088ZM5.93372 15.5252C6.49957 14.2179 7.28564 13.0938 8.2938 12.1438L6.9222 10.6882C5.71169 11.8289 4.76976 13.1794 4.09828 14.7308L5.93372 15.5252ZM8.2938 12.1438C9.29896 11.1966 10.4928 10.4659 11.8879 9.95502L11.2001 8.07698C9.56589 8.67544 8.13571 9.54471 6.9222 10.6882L8.2938 12.1438ZM11.8951 9.95233C13.3076 9.42264 14.862 9.152 16.568 9.152V7.152C14.6474 7.152 12.8524 7.45736 11.1929 8.07967L11.8951 9.95233ZM16.568 9.152C18.5685 9.152 20.3207 9.48517 21.8424 10.129L22.6216 8.28703C20.8153 7.52283 18.7915 7.152 16.568 7.152V9.152ZM21.8424 10.129C23.366 10.7736 24.608 11.6922 25.5877 12.8833L27.1323 11.6127C25.936 10.1584 24.426 9.0504 22.6216 8.28703L21.8424 10.129ZM25.6891 11.5065L21.6571 15.1545L22.9989 16.6375L27.0309 12.9895L25.6891 11.5065ZM23.0628 15.2177C22.2176 14.3021 21.2793 13.5972 20.2442 13.1289L19.4198 14.9511C20.1767 15.2935 20.9024 15.8259 21.5932 16.5743L23.0628 15.2177ZM20.2704 13.1412C19.2438 12.6405 18.1098 12.4 16.888 12.4V14.4C17.8422 14.4 18.6708 14.5862 19.3936 14.9388L20.2704 13.1412ZM16.888 12.4C15.8236 12.4 14.827 12.5658 13.9101 12.9127L14.6179 14.7833C15.2797 14.5329 16.0324 14.4 16.888 14.4V12.4ZM13.9101 12.9127C12.9901 13.2608 12.1908 13.7778 11.5277 14.4664L12.9683 15.8536C13.4146 15.3902 13.9592 15.0325 14.6179 14.7833L13.9101 12.9127ZM11.5409 14.4529C10.8837 15.1101 10.3752 15.8976 10.0093 16.8003L11.8627 17.5517C12.1368 16.8757 12.503 16.3193 12.9551 15.8671L11.5409 14.4529ZM10.004 16.8136C9.6527 17.7169 9.488 18.7178 9.488 19.8H11.488C11.488 18.9195 11.622 18.1711 11.868 17.5384L10.004 16.8136ZM9.488 19.8C9.488 20.8461 9.65472 21.8315 10.0007 22.7459L11.8713 22.0381C11.6199 21.3738 11.488 20.6313 11.488 19.8H9.488ZM10.0093 22.7677C10.374 23.6674 10.8789 24.4599 11.5277 25.1336L12.9683 23.7464C12.5077 23.2681 12.138 22.6952 11.8627 22.0163L10.0093 22.7677ZM11.5409 25.1471C12.1934 25.7996 12.9662 26.3079 13.8474 26.6751L14.6166 24.8289C13.9618 24.5561 13.4119 24.1897 12.9551 23.7329L11.5409 25.1471ZM13.8781 26.6873C14.7925 27.0333 15.7779 27.2 16.824 27.2V25.2C15.9927 25.2 15.2502 25.0681 14.5859 24.8167L13.8781 26.6873ZM16.824 27.2C17.8708 27.2 18.8949 27.0331 19.8922 26.7007L19.2598 24.8033C18.4651 25.0682 17.6545 25.2 16.824 25.2V27.2ZM19.9123 26.6937C20.9378 26.3275 21.9424 25.7292 22.9273 24.9276L21.6647 23.3764C20.815 24.0681 20.0062 24.5365 19.2397 24.8103L19.9123 26.6937ZM21.5146 24.776L25.0666 29.224L26.6294 27.976L23.0774 23.528L21.5146 24.776ZM25.2655 27.7872C24.0873 28.6315 22.7096 29.2892 21.1205 29.7519L21.6795 31.6721C23.4611 31.1535 25.0487 30.4031 26.4305 29.4128L25.2655 27.7872ZM21.1205 29.7519C19.5185 30.2183 17.9593 30.448 16.44 30.448V32.448C18.1634 32.448 19.9108 32.1871 21.6795 31.6721L21.1205 29.7519ZM21.248 27.768V19.32H19.248V27.768H21.248ZM20.248 20.32H25.848V18.32H20.248V20.32ZM24.848 19.32V28.6H26.848V19.32H24.848ZM25.995 27.6109L20.395 26.7789L20.101 28.7571L25.701 29.5891L25.995 27.6109ZM29.865 31H28.865V32H29.865V31ZM29.865 8.6V7.6H28.865V8.6H29.865ZM36.201 8.6H37.201V7.6H36.201V8.6ZM36.201 31V32H37.201V31H36.201ZM30.865 31V8.6H28.865V31H30.865ZM29.865 9.6H36.201V7.6H29.865V9.6ZM35.201 8.6V31H37.201V8.6H35.201ZM36.201 30H29.865V32H36.201V30Z" fill="white"/>
</svg>
