<svg width="160" height="90" viewBox="0 0 160 90" fill="none" xmlns="http://www.w3.org/2000/svg">
<g clip-path="url(#clip0_111_16022)">
<rect x="70" width="90" height="90" rx="45" fill="#6E7F80"/>
<path d="M143.957 31.4874V29.7643C143.957 28.5284 143.863 27.2925 143.673 26.0566C143.483 24.8206 143.104 23.6795 142.536 22.5383C141.967 21.3971 141.21 20.4465 140.356 19.4958C139.468 18.61 138.445 17.8719 137.325 17.3093C136.188 16.7387 135.051 16.3587 133.82 16.1681C132.589 15.9775 131.358 15.8828 130.126 15.8828H100.761C99.8142 15.8828 98.8672 15.9775 98.0145 16.1681C97.0674 16.3598 96.2147 16.5481 95.3631 16.9293C95.0789 17.024 94.7946 17.2146 94.5093 17.3093C93.6555 17.6893 92.8994 18.2599 92.2354 18.8316C92.0444 19.0233 91.7613 19.2117 91.5613 19.5082C90.6788 20.3998 89.9435 21.4268 89.383 22.5507C88.8145 23.6918 88.4359 24.833 88.246 26.069C88.0562 27.3049 87.9618 28.5408 87.9618 29.7767V58.3967C87.9618 59.6326 88.0562 60.8686 88.246 62.1045C88.4359 63.3404 88.8145 64.4816 89.383 65.6228C89.9514 66.764 90.7086 67.7146 91.5625 68.6652C92.4507 69.551 93.4739 70.2891 94.5936 70.8517C95.7305 71.4223 96.8674 71.8023 98.0987 71.9929C99.33 72.1835 100.561 72.2782 101.793 72.2782H130.21C131.442 72.2782 132.673 72.1835 133.904 71.9929C135.136 71.8023 136.273 71.4223 137.41 70.8517C138.547 70.2811 139.494 69.5211 140.441 68.6641C141.323 67.7725 142.059 66.7455 142.619 65.6216C143.188 64.4804 143.566 63.3392 143.756 62.1033C143.946 60.8674 144.04 59.6315 144.04 58.3956V33.5792C143.946 32.818 143.946 32.1527 143.946 31.4874H143.957Z" fill="#E6E6E6"/>
<path d="M132.307 50.6928C132.401 50.5011 132.401 50.2169 132.498 50.0162C134.866 40.6983 129.088 29.6687 119.522 23.8691C123.784 29.5751 125.584 36.6094 123.974 42.6954C123.783 43.266 123.69 43.7407 123.406 44.3113C123.215 44.2166 122.932 44.0261 122.552 43.8355C122.552 43.8355 112.985 37.8453 102.566 27.3863C102.281 27.101 108.155 35.7535 114.691 42.6943C111.566 40.9825 102.945 34.6123 97.4506 29.5728C98.1247 30.714 98.9673 31.7605 99.8188 32.8058C104.365 38.6054 110.334 45.8303 117.532 51.3468C112.511 54.3893 105.407 54.6734 98.3033 51.3468C96.5979 50.4898 94.8936 49.5403 93.3781 48.3991C96.4091 53.248 100.956 57.337 106.639 59.8088C113.365 62.6618 119.997 62.47 124.921 59.9035H125.016C125.207 59.8088 125.394 59.7118 125.584 59.5235C127.952 58.2875 132.689 57.0517 135.246 61.9953C135.814 63.0407 137.14 56.5758 132.309 50.6804L132.307 50.6928Z" fill="#35495E"/>
</g>
<rect width="90" height="90" rx="45" fill="#292929"/>
<path d="M45.1032 52.1141C49.1366 52.1141 52.4063 48.8443 52.4063 44.8109C52.4063 40.7775 49.1366 37.5078 45.1032 37.5078C41.0698 37.5078 37.8 40.7775 37.8 44.8109C37.8 48.8443 41.0698 52.1141 45.1032 52.1141Z" fill="#E6E6E6"/>
<path d="M72.8422 32.7672C71.4328 32.2547 69.9594 31.7422 68.4219 31.2938C68.8063 29.7563 69.1266 28.2187 69.3828 26.7453C70.7281 18.2891 69.2547 12.3312 65.1547 10.025C63.9375 9.32031 62.5922 9 61.0547 9C56.5703 9 50.8688 12.3312 45.1031 17.9047C39.3375 12.3312 33.6359 9 29.1516 9C27.6141 9 26.2688 9.32031 25.0516 10.025C20.9516 12.3953 19.4781 18.3531 20.8234 26.7453C21.0797 28.2187 21.4 29.7563 21.7844 31.2938C20.2469 31.7422 18.7734 32.1906 17.3641 32.7672C9.35625 35.8422 5 40.0703 5 44.8109C5 49.5516 9.42031 53.7797 17.3641 56.8547C18.7734 57.3672 20.2469 57.8797 21.7844 58.3281C21.4 59.8656 21.0797 61.4031 20.8234 62.8766C19.4781 71.3328 20.9516 77.2906 25.0516 79.5969C26.2688 80.3016 27.6141 80.6219 29.1516 80.6219C33.7 80.6219 39.4016 77.2906 45.1031 71.7172C50.8688 77.2906 56.5703 80.6219 61.0547 80.6219C62.5922 80.6219 63.9375 80.3016 65.1547 79.5969C69.2547 77.2266 70.7281 71.2687 69.3828 62.8766C69.1266 61.4031 68.8063 59.8656 68.4219 58.3281C69.9594 57.8797 71.4328 57.4312 72.8422 56.8547C80.85 53.7797 85.2063 49.5516 85.2063 44.8109C85.2063 40.0703 80.85 35.8422 72.8422 32.7672ZM63.3609 13.2281C65.9875 14.7656 66.8844 19.5062 65.7953 26.2328C65.6031 27.5781 65.2828 28.9875 64.8984 30.4609C61.5672 29.6922 58.0438 29.1797 54.3281 28.8594C52.15 25.7844 49.9078 23.0297 47.6656 20.5312C52.4063 15.8547 57.2109 12.6516 61.1188 12.6516C61.9516 12.6516 62.7203 12.8437 63.3609 13.2281ZM56.1859 51.2172C55.0328 53.2672 53.6875 55.3172 52.2781 57.3672C49.9078 57.5594 47.5375 57.6234 45.1031 57.6234C42.6047 57.6234 40.2344 57.5594 37.9281 57.3672C36.5188 55.3172 35.2375 53.2672 34.0844 51.2172C32.8672 49.1031 31.7141 46.925 30.6891 44.8109C31.7141 42.6969 32.8672 40.5187 34.0844 38.4047C35.2375 36.3547 36.5828 34.3047 37.9922 32.2547C40.3625 32.0625 42.7328 31.9984 45.1672 31.9984C47.6656 31.9984 50.0359 32.0625 52.3422 32.2547C53.7516 34.3047 55.0328 36.3547 56.1859 38.4047C57.4031 40.5187 58.5563 42.6969 59.5813 44.8109C58.4922 46.925 57.4031 49.0391 56.1859 51.2172ZM61.5031 49.1031C62.4641 51.3453 63.2328 53.5234 63.9375 55.7016C61.7594 56.2141 59.4531 56.5984 57.0188 56.9187C57.7875 55.7016 58.6203 54.4203 59.325 53.075C60.0938 51.7297 60.7984 50.3844 61.5031 49.1031ZM45.1031 66.4641C43.5656 64.7984 42.0922 63.0047 40.6828 61.1469C42.1562 61.2109 43.6297 61.275 45.1031 61.275C46.5766 61.275 48.05 61.2109 49.5234 61.1469C48.1141 63.0047 46.6406 64.7984 45.1031 66.4641ZM33.1875 56.8547C30.7531 56.5344 28.4469 56.15 26.2687 55.6375C26.9734 53.5234 27.7422 51.2812 28.7031 49.0391C29.4078 50.3203 30.1125 51.6656 30.8813 52.9469C31.65 54.3562 32.4188 55.5734 33.1875 56.8547ZM28.7031 40.5187C27.7422 38.2766 26.9734 36.0984 26.2687 33.9203C28.4469 33.4078 30.7531 33.0234 33.1875 32.7031C32.4188 33.9203 31.5859 35.2016 30.8813 36.5469C30.1125 37.8922 29.4078 39.2375 28.7031 40.5187ZM45.1031 23.1578C46.6406 24.8234 48.1141 26.6172 49.5234 28.475C48.05 28.4109 46.5766 28.3469 45.1031 28.3469C43.6297 28.3469 42.1562 28.4109 40.6828 28.475C42.0922 26.6172 43.5656 24.8234 45.1031 23.1578ZM59.325 36.6109L57.0188 32.7672C59.4531 33.0875 61.7594 33.4719 63.9375 33.9844C63.2328 36.0984 62.4641 38.3406 61.5031 40.5828C60.7984 39.2375 60.0938 37.8922 59.325 36.6109ZM24.4109 26.2328C23.3219 19.5062 24.2188 14.7656 26.8453 13.2281C27.4859 12.8437 28.2547 12.6516 29.0875 12.6516C32.9313 12.6516 37.7359 15.7906 42.5406 20.5312C40.2984 22.9656 38.0563 25.7844 35.8781 28.8594C32.1625 29.1797 28.6391 29.7562 25.3078 30.4609C24.9234 28.9875 24.6672 27.5781 24.4109 26.2328ZM8.5875 44.8109C8.5875 41.8 12.2391 38.5969 18.6453 36.2266C19.9266 35.7141 21.3359 35.2656 22.7453 34.8812C23.7703 38.0844 25.0516 41.4797 26.5891 44.875C25.0516 48.2703 23.7063 51.6016 22.7453 54.8047C13.9047 52.2422 8.5875 48.3984 8.5875 44.8109ZM26.8453 76.3937C24.2188 74.8562 23.3219 70.1156 24.4109 63.3891C24.6031 62.0437 24.9234 60.6344 25.3078 59.1609C28.6391 59.9297 32.1625 60.4422 35.8781 60.7625C38.0563 63.8375 40.2984 66.5922 42.5406 69.0906C37.8 73.7672 32.9953 76.9703 29.0875 76.9703C28.2547 76.9703 27.4859 76.7781 26.8453 76.3937ZM65.7953 63.3891C66.8844 70.1156 65.9875 74.8562 63.3609 76.3937C62.7203 76.7781 61.9516 76.9703 61.1188 76.9703C57.275 76.9703 52.4703 73.8312 47.6656 69.0906C49.9078 66.6562 52.15 63.8375 54.3281 60.7625C58.0438 60.4422 61.5672 59.8656 64.8984 59.1609C65.2828 60.6344 65.5391 62.0437 65.7953 63.3891ZM71.5609 53.3953C70.2797 53.9078 68.8703 54.3562 67.4609 54.7406C66.4359 51.5375 65.1547 48.1422 63.6172 44.7469C65.1547 41.3516 66.5 38.0203 67.4609 34.8172C76.3016 37.3797 81.6188 41.2234 81.6188 44.8109C81.6188 47.8219 77.9031 51.025 71.5609 53.3953Z" fill="#E6E6E6"/>
<defs>
<clipPath id="clip0_111_16022">
<rect x="70" width="90" height="90" rx="45" fill="white"/>
</clipPath>
</defs>
</svg>
