<svg width="155" height="90" viewBox="0 0 155 90" fill="none" xmlns="http://www.w3.org/2000/svg">
<rect x="65" width="90" height="90" rx="45" fill="#6E7F80"/>
<path d="M144.262 64.6031C141.733 65.2465 140.169 64.6308 138.765 62.523C135.615 57.8026 132.137 53.2986 128.781 48.7113C128.348 48.1178 127.899 47.5353 127.339 46.7976C123.367 52.1559 119.401 57.259 115.679 62.5674C114.348 64.4644 112.95 65.2909 110.465 64.6197L125.397 44.5789L111.497 26.4794C113.888 26.0135 115.54 26.252 117.005 28.3931C120.239 33.119 123.805 37.6175 127.361 42.3768C130.939 37.6342 134.461 33.1301 137.789 28.4485C139.126 26.5515 140.562 25.8304 142.964 26.5293C141.145 28.9422 139.364 31.3163 137.573 33.6737C135.154 36.8521 132.78 40.0693 130.273 43.1811C129.38 44.2904 129.524 45.0115 130.323 46.0599C134.96 52.1559 139.542 58.3129 144.262 64.6031Z" fill="black"/>
<path d="M74.7377 44.2461C75.1371 42.2437 75.4033 40.2024 75.958 38.2388C79.2861 26.3519 92.9315 21.4096 102.306 28.7759C107.797 33.0969 109.162 39.1873 108.89 46.0544H77.9383C77.4723 58.374 86.3418 65.8123 97.6463 62.0183C101.612 60.687 103.948 57.5808 105.118 53.698C105.711 51.751 106.693 51.4459 108.524 52.0006C107.586 56.8597 105.462 60.92 101.024 63.4605C94.3681 67.2656 84.8663 66.0342 79.8686 60.748C76.9176 57.6418 75.664 53.7756 75.1094 49.5988C75.0261 48.9332 74.8542 48.2787 74.7211 47.6186C74.7322 46.4944 74.7377 45.3703 74.7377 44.2461ZM77.9937 43.4196H105.967C105.784 34.5113 100.237 28.1823 92.6541 28.1269C84.3338 28.0603 78.3543 34.2395 77.9937 43.4196Z" fill="black"/>
<rect width="90" height="90" rx="45" fill="#292929"/>
<g clip-path="url(#clip0_111_16042)">
<path d="M44.9953 82C43.9972 82.0004 43.0167 81.7377 42.1525 81.2384L33.1 75.8828C31.7495 75.1273 32.4093 74.8591 32.8532 74.7018C34.657 74.0759 35.0209 73.931 36.9479 72.8395C37.1483 72.7254 37.4135 72.7686 37.62 72.8919L44.576 77.0205C44.7052 77.0888 44.8491 77.1246 44.9953 77.1246C45.1415 77.1246 45.2855 77.0888 45.4147 77.0205L72.5323 61.3696C72.6587 61.2934 72.7632 61.1858 72.8356 61.0572C72.908 60.9286 72.9458 60.7834 72.9454 60.6358V29.3403C72.9451 29.1901 72.9061 29.0425 72.8321 28.9118C72.7581 28.7811 72.6516 28.6717 72.523 28.5941L45.4177 12.9556C45.29 12.8843 45.1462 12.8469 44.9999 12.8469C44.8537 12.8469 44.7099 12.8843 44.5822 12.9556L17.483 28.5972C17.3538 28.6739 17.2465 28.7825 17.1715 28.9127C17.0964 29.0428 17.0561 29.1901 17.0545 29.3403V60.6358C17.0548 60.7838 17.0948 60.929 17.1701 61.0564C17.2454 61.1838 17.3535 61.2888 17.483 61.3604L24.9107 65.6524C28.9406 67.6688 31.4102 65.2946 31.4102 62.9082V32.0105C31.4101 31.9072 31.4305 31.8049 31.4702 31.7096C31.51 31.6143 31.5682 31.5278 31.6417 31.4553C31.7151 31.3827 31.8023 31.3254 31.8981 31.2868C31.9938 31.2482 32.0963 31.229 32.1996 31.2304H35.6375C35.8451 31.2298 36.0445 31.3117 36.1919 31.4579C36.3392 31.6041 36.4226 31.8029 36.4237 32.0105V62.9081C36.4237 68.2885 33.4946 71.3718 28.3948 71.3718C26.8285 71.3718 25.5921 71.3718 22.148 69.6729L15.0318 65.5813C14.1668 65.0777 13.449 64.3559 12.9502 63.4881C12.4513 62.6202 12.1888 61.6367 12.189 60.6358V29.3403C12.1892 28.3398 12.4518 27.3569 12.9506 26.4896C13.4495 25.6223 14.1671 24.901 15.0318 24.3978L42.1495 8.72844C43.8668 7.75719 46.1454 7.75719 47.8473 8.72844L74.962 24.3978C75.8277 24.9005 76.5463 25.6215 77.0463 26.4887C77.5462 27.356 77.8099 28.3393 77.811 29.3403V60.6358C77.8091 61.6371 77.5452 62.6205 77.0454 63.4882C76.5455 64.3558 75.8273 65.0775 74.962 65.5814L47.8474 81.2385C46.9808 81.7401 45.9966 82.0029 44.9953 82ZM66.8898 51.1455C66.8898 45.2871 62.9308 43.727 54.5967 42.6262C46.1762 41.5132 45.3191 40.9367 45.3191 38.9664C45.3191 37.3384 46.0437 35.1646 52.2811 35.1646C57.8527 35.1646 59.9062 36.364 60.751 40.1195C60.7893 40.2931 60.8856 40.4485 61.024 40.56C61.1625 40.6716 61.3348 40.7326 61.5126 40.7331H65.0306C65.1381 40.7321 65.2442 40.7094 65.3427 40.6665C65.4413 40.6236 65.5302 40.5613 65.6041 40.4833C65.6786 40.4025 65.7355 40.307 65.7711 40.2029C65.8066 40.0989 65.8201 39.9886 65.8107 39.879C65.265 33.4103 60.9668 30.3948 52.2811 30.3948C44.5483 30.3948 39.9356 33.6569 39.9356 39.1298C39.9356 45.0651 44.5236 46.7054 51.9451 47.4393C60.825 48.3088 61.5126 49.6069 61.5126 51.352C61.5126 54.3828 59.0799 55.6748 53.3665 55.6748C46.1917 55.6748 44.613 53.8741 44.0827 50.3036C44.0532 50.1182 43.9583 49.9495 43.8152 49.8279C43.6722 49.7063 43.4903 49.6399 43.3026 49.6408H39.7969C39.6941 49.64 39.5922 49.6597 39.497 49.6986C39.4019 49.7375 39.3154 49.7949 39.2426 49.8675C39.1698 49.94 39.1121 50.0263 39.0728 50.1213C39.0335 50.2162 39.0134 50.3181 39.0137 50.4209C39.0137 54.9902 41.4989 60.4354 53.3665 60.4354C61.9627 60.4385 66.8898 57.0561 66.8898 51.1455Z" fill="#E6E6E6"/>
</g>
<defs>
<clipPath id="clip0_111_16042">
<rect width="74" height="74" fill="white" transform="translate(8 8)"/>
</clipPath>
</defs>
</svg>
