<svg width="32" height="32" viewBox="0 0 32 32" fill="none" xmlns="http://www.w3.org/2000/svg">
<path d="M16.1711 18.7001C15.6901 18.9211 15.1631 19.209 14.1081 19.788C13.7081 20.0131 13.2901 20.2381 12.9011 20.4501C12.8741 20.423 12.8461 20.389 12.8191 20.361C10.7321 18.1311 6.87213 16.556 7.03613 13.561C7.09713 12.47 7.47213 9.60605 14.4491 6.12805C20.1911 3.29805 24.7601 4.08205 25.5491 5.82105C26.6831 8.30005 23.1001 12.913 17.1701 13.582C16.5138 13.7152 15.836 13.6991 15.1867 13.535C14.5375 13.3709 13.9334 13.063 13.4191 12.634C13.1051 12.293 13.0581 12.273 12.9421 12.341C12.7511 12.441 12.8741 12.75 12.9421 12.927C13.1683 13.3366 13.4743 13.6966 13.8421 13.9859C14.2098 14.2751 14.6318 14.4877 15.0831 14.611C17.4167 15.1154 19.8498 14.8744 22.0391 13.922C25.6331 12.531 28.4391 8.66405 27.6171 5.42205C26.7921 2.13505 21.3361 1.05105 16.1741 2.88505C12.9414 3.97444 9.95466 5.68936 7.38413 7.93205C4.54013 10.592 4.09013 12.904 4.27413 13.872C4.93613 17.309 9.67413 19.546 11.5741 21.203C11.4741 21.258 11.3901 21.3031 11.3151 21.3461C10.3671 21.8171 6.75313 23.7061 5.85213 25.7041C4.82913 27.9681 6.01613 29.5911 6.80013 29.8091C7.98162 30.0921 9.22199 29.999 10.348 29.5429C11.4741 29.0869 12.4296 28.2905 13.0811 27.2651C13.6344 26.4147 13.9741 25.4434 14.0715 24.4336C14.1688 23.4238 14.0208 22.4054 13.6401 21.465C13.8647 21.2859 14.1043 21.1263 14.3561 20.9881C14.8401 20.7021 15.3011 20.42 15.7101 20.202C17.1105 19.5461 18.6387 19.2084 20.1851 19.213C23.4311 19.595 24.0721 21.6201 23.9491 22.473C23.8916 22.7757 23.7699 23.0625 23.5922 23.3142C23.4146 23.5658 23.185 23.7765 22.9191 23.932C22.6941 24.0751 22.6191 24.1231 22.6391 24.225C22.6661 24.3751 22.7751 24.368 22.9661 24.341C23.4538 24.1869 23.8835 23.8889 24.1987 23.486C24.5138 23.0832 24.6998 22.5945 24.7321 22.084C24.8321 20.084 22.9251 17.89 19.5491 17.91C18.5383 17.9118 17.5375 18.1112 16.6031 18.497C16.4531 18.559 16.3075 18.6257 16.1661 18.6971L16.1711 18.7001ZM11.3461 26.5391C10.2681 27.712 8.76813 28.1551 8.12013 27.7801C7.42013 27.3801 7.69713 25.6451 9.02013 24.404C9.80369 23.6981 10.6506 23.0657 11.5501 22.515C11.7071 22.415 11.9391 22.2831 12.2181 22.115C12.2661 22.088 12.2931 22.074 12.2931 22.074L12.4571 21.9741C12.6931 22.7652 12.7146 23.6048 12.5193 24.4069C12.3241 25.209 11.9192 25.9449 11.3461 26.5391Z" fill="#CD6799"/>
</svg>
