<svg width="155" height="90" viewBox="0 0 155 90" fill="none" xmlns="http://www.w3.org/2000/svg">
<rect x="65" width="90" height="90" rx="45" fill="#6E7F80"/>
<path d="M129.95 23.3223H143.25L110 80.6785L76.75 23.3223H102.186L110 36.6223L117.647 23.3223H129.95Z" fill="#41B883"/>
<path d="M76.75 23.3223L110 80.6785L143.25 23.3223H129.95L110 57.736L89.8838 23.3223H76.75Z" fill="#E6E6E6"/>
<path d="M89.8838 23.3223L110 57.9023L129.95 23.3223H117.648L110 36.6223L102.186 23.3223H89.8838Z" fill="#35495E"/>
<rect width="90" height="90" rx="45" fill="#292929"/>
<path d="M45.1032 52.1141C49.1366 52.1141 52.4063 48.8443 52.4063 44.8109C52.4063 40.7775 49.1366 37.5078 45.1032 37.5078C41.0698 37.5078 37.8 40.7775 37.8 44.8109C37.8 48.8443 41.0698 52.1141 45.1032 52.1141Z" fill="#E6E6E6"/>
<path d="M72.8422 32.7672C71.4328 32.2547 69.9594 31.7422 68.4219 31.2938C68.8063 29.7563 69.1266 28.2187 69.3828 26.7453C70.7281 18.2891 69.2547 12.3312 65.1547 10.025C63.9375 9.32031 62.5922 9 61.0547 9C56.5703 9 50.8688 12.3312 45.1031 17.9047C39.3375 12.3312 33.6359 9 29.1516 9C27.6141 9 26.2688 9.32031 25.0516 10.025C20.9516 12.3953 19.4781 18.3531 20.8234 26.7453C21.0797 28.2187 21.4 29.7563 21.7844 31.2938C20.2469 31.7422 18.7734 32.1906 17.3641 32.7672C9.35625 35.8422 5 40.0703 5 44.8109C5 49.5516 9.42031 53.7797 17.3641 56.8547C18.7734 57.3672 20.2469 57.8797 21.7844 58.3281C21.4 59.8656 21.0797 61.4031 20.8234 62.8766C19.4781 71.3328 20.9516 77.2906 25.0516 79.5969C26.2688 80.3016 27.6141 80.6219 29.1516 80.6219C33.7 80.6219 39.4016 77.2906 45.1031 71.7172C50.8688 77.2906 56.5703 80.6219 61.0547 80.6219C62.5922 80.6219 63.9375 80.3016 65.1547 79.5969C69.2547 77.2266 70.7281 71.2687 69.3828 62.8766C69.1266 61.4031 68.8063 59.8656 68.4219 58.3281C69.9594 57.8797 71.4328 57.4312 72.8422 56.8547C80.85 53.7797 85.2063 49.5516 85.2063 44.8109C85.2063 40.0703 80.85 35.8422 72.8422 32.7672ZM63.3609 13.2281C65.9875 14.7656 66.8844 19.5062 65.7953 26.2328C65.6031 27.5781 65.2828 28.9875 64.8984 30.4609C61.5672 29.6922 58.0438 29.1797 54.3281 28.8594C52.15 25.7844 49.9078 23.0297 47.6656 20.5312C52.4063 15.8547 57.2109 12.6516 61.1188 12.6516C61.9516 12.6516 62.7203 12.8437 63.3609 13.2281ZM56.1859 51.2172C55.0328 53.2672 53.6875 55.3172 52.2781 57.3672C49.9078 57.5594 47.5375 57.6234 45.1031 57.6234C42.6047 57.6234 40.2344 57.5594 37.9281 57.3672C36.5188 55.3172 35.2375 53.2672 34.0844 51.2172C32.8672 49.1031 31.7141 46.925 30.6891 44.8109C31.7141 42.6969 32.8672 40.5187 34.0844 38.4047C35.2375 36.3547 36.5828 34.3047 37.9922 32.2547C40.3625 32.0625 42.7328 31.9984 45.1672 31.9984C47.6656 31.9984 50.0359 32.0625 52.3422 32.2547C53.7516 34.3047 55.0328 36.3547 56.1859 38.4047C57.4031 40.5187 58.5563 42.6969 59.5813 44.8109C58.4922 46.925 57.4031 49.0391 56.1859 51.2172ZM61.5031 49.1031C62.4641 51.3453 63.2328 53.5234 63.9375 55.7016C61.7594 56.2141 59.4531 56.5984 57.0188 56.9187C57.7875 55.7016 58.6203 54.4203 59.325 53.075C60.0938 51.7297 60.7984 50.3844 61.5031 49.1031ZM45.1031 66.4641C43.5656 64.7984 42.0922 63.0047 40.6828 61.1469C42.1562 61.2109 43.6297 61.275 45.1031 61.275C46.5766 61.275 48.05 61.2109 49.5234 61.1469C48.1141 63.0047 46.6406 64.7984 45.1031 66.4641ZM33.1875 56.8547C30.7531 56.5344 28.4469 56.15 26.2687 55.6375C26.9734 53.5234 27.7422 51.2812 28.7031 49.0391C29.4078 50.3203 30.1125 51.6656 30.8813 52.9469C31.65 54.3562 32.4188 55.5734 33.1875 56.8547ZM28.7031 40.5187C27.7422 38.2766 26.9734 36.0984 26.2687 33.9203C28.4469 33.4078 30.7531 33.0234 33.1875 32.7031C32.4188 33.9203 31.5859 35.2016 30.8813 36.5469C30.1125 37.8922 29.4078 39.2375 28.7031 40.5187ZM45.1031 23.1578C46.6406 24.8234 48.1141 26.6172 49.5234 28.475C48.05 28.4109 46.5766 28.3469 45.1031 28.3469C43.6297 28.3469 42.1562 28.4109 40.6828 28.475C42.0922 26.6172 43.5656 24.8234 45.1031 23.1578ZM59.325 36.6109L57.0188 32.7672C59.4531 33.0875 61.7594 33.4719 63.9375 33.9844C63.2328 36.0984 62.4641 38.3406 61.5031 40.5828C60.7984 39.2375 60.0938 37.8922 59.325 36.6109ZM24.4109 26.2328C23.3219 19.5062 24.2188 14.7656 26.8453 13.2281C27.4859 12.8437 28.2547 12.6516 29.0875 12.6516C32.9313 12.6516 37.7359 15.7906 42.5406 20.5312C40.2984 22.9656 38.0563 25.7844 35.8781 28.8594C32.1625 29.1797 28.6391 29.7562 25.3078 30.4609C24.9234 28.9875 24.6672 27.5781 24.4109 26.2328ZM8.5875 44.8109C8.5875 41.8 12.2391 38.5969 18.6453 36.2266C19.9266 35.7141 21.3359 35.2656 22.7453 34.8812C23.7703 38.0844 25.0516 41.4797 26.5891 44.875C25.0516 48.2703 23.7063 51.6016 22.7453 54.8047C13.9047 52.2422 8.5875 48.3984 8.5875 44.8109ZM26.8453 76.3937C24.2188 74.8562 23.3219 70.1156 24.4109 63.3891C24.6031 62.0437 24.9234 60.6344 25.3078 59.1609C28.6391 59.9297 32.1625 60.4422 35.8781 60.7625C38.0563 63.8375 40.2984 66.5922 42.5406 69.0906C37.8 73.7672 32.9953 76.9703 29.0875 76.9703C28.2547 76.9703 27.4859 76.7781 26.8453 76.3937ZM65.7953 63.3891C66.8844 70.1156 65.9875 74.8562 63.3609 76.3937C62.7203 76.7781 61.9516 76.9703 61.1188 76.9703C57.275 76.9703 52.4703 73.8312 47.6656 69.0906C49.9078 66.6562 52.15 63.8375 54.3281 60.7625C58.0438 60.4422 61.5672 59.8656 64.8984 59.1609C65.2828 60.6344 65.5391 62.0437 65.7953 63.3891ZM71.5609 53.3953C70.2797 53.9078 68.8703 54.3562 67.4609 54.7406C66.4359 51.5375 65.1547 48.1422 63.6172 44.7469C65.1547 41.3516 66.5 38.0203 67.4609 34.8172C76.3016 37.3797 81.6188 41.2234 81.6188 44.8109C81.6188 47.8219 77.9031 51.025 71.5609 53.3953Z" fill="#E6E6E6"/>
</svg>
