<svg width="263" height="263" viewBox="0 0 263 263" fill="none" xmlns="http://www.w3.org/2000/svg">
<g clip-path="url(#clip0_124_11332)">
<path fill-rule="evenodd" clip-rule="evenodd" d="M152.244 167.157C175.875 162.953 199.988 154.485 217.68 138.289C224.118 132.396 228.859 125.411 233.776 118.303C234.121 117.805 233.997 117.118 233.497 116.77C232.995 116.424 232.308 116.549 231.962 117.051C227.139 124.02 222.505 130.884 216.192 136.662C198.75 152.629 174.946 160.911 151.651 165.024L151.559 164.671C150.569 160.833 146.494 157.325 140.975 154.634C133.063 150.776 122.231 148.488 114.332 148.75C110.783 148.868 107.808 149.517 105.87 150.7C104.36 151.621 103.427 152.868 103.172 154.415C102.629 157.712 105.078 160.648 109.377 162.89C118.365 167.583 135.405 169.616 142.962 168.602C145.321 168.285 147.695 167.93 150.074 167.531C150.267 168.201 150.453 168.858 150.605 169.505C151.032 171.351 151.18 173.144 150.308 175.147C148.947 178.269 146.297 180.732 143.152 182.71C138.243 185.793 132.118 187.677 127.43 188.84C101.322 195.314 79.7415 187.661 62.5073 176.449C45.1043 165.124 32.0998 150.177 23.3063 142.253C22.8548 141.845 22.1584 141.884 21.75 142.335C21.3415 142.787 21.3781 143.485 21.8319 143.891C30.6815 151.867 43.786 166.898 61.3067 178.296C78.9963 189.809 101.159 197.625 127.96 190.982C132.844 189.771 139.213 187.789 144.325 184.578C147.863 182.353 150.798 179.54 152.33 176.027C153.703 172.874 153.082 170.155 152.244 167.157ZM149.469 165.397L149.425 165.22C148.56 161.865 144.835 158.969 140.009 156.617C132.406 152.91 121.999 150.703 114.405 150.956C111.801 151.041 109.54 151.413 107.872 152.141C106.496 152.743 105.545 153.571 105.349 154.774C105.159 155.909 105.553 156.949 106.333 157.905C107.247 159.028 108.66 160.029 110.395 160.936C119.032 165.444 135.407 167.392 142.668 166.417C144.923 166.113 147.192 165.775 149.469 165.397Z" fill="white"/>
<path fill-rule="evenodd" clip-rule="evenodd" d="M233.838 113.891C234.058 114.321 234.177 114.987 234.296 115.705C234.581 117.414 234.649 119.423 234.72 120.369C234.767 120.977 235.298 121.43 235.904 121.385C236.512 121.338 236.967 120.809 236.92 120.201C236.832 119.043 236.737 116.366 236.294 114.436C236.056 113.401 235.691 112.56 235.254 112.096C234.511 111.303 233.42 111.308 232.118 112.397C230.577 113.687 228.288 116.799 225.091 117.798C224.511 117.978 224.186 118.6 224.369 119.178C224.55 119.761 225.169 120.085 225.751 119.903C228.798 118.949 231.168 116.352 232.851 114.715C233.171 114.404 233.588 114.08 233.838 113.891Z" fill="white"/>
</g>
<defs>
<clipPath id="clip0_124_11332">
<rect width="187" height="187" fill="white" transform="translate(0 116.508) rotate(-38.5384)"/>
</clipPath>
</defs>
</svg>
