<svg width="23" height="19" viewBox="0 0 23 19" fill="none" xmlns="http://www.w3.org/2000/svg">
<path d="M22.9793 1.16348L19.4141 18.0123C19.371 18.2161 19.2768 18.4059 19.1402 18.5642C19.0037 18.7226 18.8291 18.8444 18.6325 18.9186C18.436 18.9927 18.2238 19.0168 18.0154 18.9885C17.807 18.9603 17.6091 18.8806 17.4399 18.7569L12.2541 14.9643L9.11233 17.8984C9.07121 17.9368 9.02277 17.9667 8.96984 17.9864C8.9169 18.006 8.86055 18.0151 8.80405 18.0129C8.74755 18.0108 8.69204 17.9976 8.64077 17.974C8.5895 17.9504 8.54349 17.9169 8.50543 17.8755L8.43792 17.8021L8.98382 12.5724L18.8232 3.67298C18.8719 3.62905 18.9021 3.56865 18.908 3.50372C18.9139 3.43878 18.895 3.37401 18.855 3.3222C18.815 3.27039 18.7569 3.23529 18.692 3.22382C18.6272 3.21236 18.5604 3.22536 18.5048 3.26027L5.92138 11.1443L0.501973 9.34254C0.357874 9.29462 0.232283 9.20373 0.142431 9.08235C0.0525797 8.96097 0.00286922 8.81504 0.000120474 8.66458C-0.00262828 8.51412 0.041719 8.36651 0.127078 8.24199C0.212437 8.11747 0.334626 8.02215 0.476881 7.9691L21.6809 0.0618776C21.8445 0.000945421 22.0216 -0.0153697 22.1937 0.0146368C22.3658 0.0446433 22.5266 0.119869 22.6593 0.232452C22.792 0.345034 22.8917 0.490838 22.948 0.65462C23.0043 0.818401 23.0151 0.994146 22.9793 1.16348Z" fill="black"/>
</svg>
