<svg width="32" height="32" viewBox="0 0 32 32" fill="none" xmlns="http://www.w3.org/2000/svg">
<rect width="32" height="32" rx="1.56977" fill="#007ACC"/>
<path d="M9.86572 17.2643V18.4052H13.5041V28.7648H16.0859V18.4052H19.7242V17.2852C19.7242 16.6553 19.7242 16.1443 19.6962 16.1303C19.6962 16.1093 17.4782 16.1023 14.7844 16.1023L9.8867 16.1233V17.2713L9.86572 17.2643ZM26.2172 16.0953C26.9309 16.2633 27.4766 16.5853 27.9664 17.0962C28.2253 17.3762 28.6102 17.8663 28.6381 17.9922C28.6381 18.0342 27.4277 18.8532 26.693 19.3082C26.665 19.3292 26.5531 19.2102 26.4412 19.0282C26.0773 18.5102 25.7065 18.2862 25.1257 18.2442C24.2861 18.1882 23.7264 18.6292 23.7264 19.3642C23.7264 19.5882 23.7683 19.7142 23.8523 19.8962C24.0412 20.2811 24.3911 20.5121 25.4756 20.9881C27.4766 21.8491 28.3443 22.4161 28.869 23.228C29.4638 24.138 29.5967 25.5659 29.1979 26.6369C28.7501 27.8058 27.6586 28.5968 26.0983 28.8558C25.6085 28.9398 24.489 28.9258 23.9643 28.8348C22.8448 28.6248 21.7743 28.0648 21.1166 27.3439C20.8577 27.0639 20.3609 26.3149 20.3889 26.2659L20.6548 26.0979L21.7043 25.4889L22.4949 25.0269L22.6769 25.2719C22.9078 25.6359 23.4255 26.1259 23.7264 26.2939C24.636 26.7629 25.8534 26.6999 26.4551 26.1539C26.714 25.9159 26.826 25.6639 26.826 25.314C26.826 24.992 26.777 24.845 26.616 24.6C26.3922 24.292 25.9443 24.04 24.6849 23.48C23.2366 22.864 22.6209 22.4721 22.0472 21.8701C21.7183 21.5061 21.4175 20.9391 21.2775 20.4701C21.1725 20.0641 21.1376 19.0702 21.2355 18.6712C21.5364 17.2713 22.5929 16.2913 24.1042 16.0113C24.594 15.9133 25.7485 15.9553 26.2312 16.0813L26.2172 16.0953Z" fill="#E6F5FF"/>
</svg>
